<mxfile host="app.diagrams.net" modified="2021-11-10T04:15:09.003Z" agent="5.0 (Windows NT 10.0; Win64; x64) AppleWebKit/537.36 (KHTML, like Gecko) Chrome/92.0.4515.159 Safari/537.36" etag="M2YWl9prhuKVvR7VwfWj" version="15.6.8" type="github">
  <diagram id="ATivfeKOni3P2LOzAWiQ" name="快速排序">
    <mxGraphModel dx="770" dy="552" grid="1" gridSize="10" guides="1" tooltips="1" connect="1" arrows="1" fold="1" page="1" pageScale="1" pageWidth="827" pageHeight="1169" math="0" shadow="0">
      <root>
        <mxCell id="0" />
        <mxCell id="1" parent="0" />
        <mxCell id="R9cgglhznIyMTxW2har4-1" value="8" style="rounded=0;whiteSpace=wrap;html=1;fillColor=#A680B8;fontColor=#FFFFFF;fontSize=16;fontStyle=1" vertex="1" parent="1">
          <mxGeometry x="90" y="60" width="40" height="30" as="geometry" />
        </mxCell>
        <mxCell id="R9cgglhznIyMTxW2har4-2" value="5" style="rounded=0;whiteSpace=wrap;html=1;fillColor=#A680B8;fontColor=#FFFFFF;fontSize=16;fontStyle=1" vertex="1" parent="1">
          <mxGeometry x="130" y="60" width="40" height="30" as="geometry" />
        </mxCell>
        <mxCell id="R9cgglhznIyMTxW2har4-3" value="7" style="rounded=0;whiteSpace=wrap;html=1;fillColor=#A680B8;fontColor=#FFFFFF;fontSize=16;fontStyle=1" vertex="1" parent="1">
          <mxGeometry x="170" y="60" width="40" height="30" as="geometry" />
        </mxCell>
        <mxCell id="R9cgglhznIyMTxW2har4-4" value="4" style="rounded=0;whiteSpace=wrap;html=1;fillColor=#A680B8;fontColor=#FFFFFF;fontSize=16;fontStyle=1" vertex="1" parent="1">
          <mxGeometry x="210" y="60" width="40" height="30" as="geometry" />
        </mxCell>
        <mxCell id="R9cgglhznIyMTxW2har4-5" value="1" style="rounded=0;whiteSpace=wrap;html=1;fillColor=#A680B8;fontColor=#FFFFFF;fontSize=16;fontStyle=1" vertex="1" parent="1">
          <mxGeometry x="250" y="60" width="40" height="30" as="geometry" />
        </mxCell>
        <mxCell id="R9cgglhznIyMTxW2har4-6" value="3" style="rounded=0;whiteSpace=wrap;html=1;fillColor=#A680B8;fontColor=#FFFFFF;fontSize=16;fontStyle=1" vertex="1" parent="1">
          <mxGeometry x="290" y="60" width="40" height="30" as="geometry" />
        </mxCell>
        <mxCell id="R9cgglhznIyMTxW2har4-7" value="2" style="rounded=0;whiteSpace=wrap;html=1;fillColor=#A680B8;fontColor=#FFFFFF;fontSize=16;fontStyle=1" vertex="1" parent="1">
          <mxGeometry x="330" y="60" width="40" height="30" as="geometry" />
        </mxCell>
        <mxCell id="R9cgglhznIyMTxW2har4-8" value="6" style="rounded=0;whiteSpace=wrap;html=1;fillColor=#A680B8;fontColor=#FFFFFF;fontSize=16;fontStyle=1" vertex="1" parent="1">
          <mxGeometry x="370" y="60" width="40" height="30" as="geometry" />
        </mxCell>
        <mxCell id="R9cgglhznIyMTxW2har4-9" value="9" style="rounded=0;whiteSpace=wrap;html=1;fillColor=#A680B8;fontColor=#FFFFFF;fontSize=16;fontStyle=1" vertex="1" parent="1">
          <mxGeometry x="410" y="60" width="40" height="30" as="geometry" />
        </mxCell>
      </root>
    </mxGraphModel>
  </diagram>
</mxfile>
